<mxfile host="app.diagrams.net" agent="Mozilla/5.0 (Windows NT 10.0; Win64; x64) AppleWebKit/537.36 (KHTML, like Gecko) Chrome/131.0.0.0 Safari/537.36" version="25.0.3">
  <diagram name="Page-1" id="6-gjoGEpxw4ECkMXdpWF">
    <mxGraphModel dx="1419" dy="717" grid="1" gridSize="10" guides="1" tooltips="1" connect="1" arrows="1" fold="1" page="1" pageScale="1" pageWidth="827" pageHeight="1169" math="0" shadow="0">
      <root>
        <mxCell id="0" />
        <mxCell id="1" parent="0" />
        <mxCell id="8lX21HBY1fIl10csvX2d-26" style="edgeStyle=orthogonalEdgeStyle;rounded=0;orthogonalLoop=1;jettySize=auto;html=1;exitX=0.5;exitY=1;exitDx=0;exitDy=0;entryX=0.5;entryY=0;entryDx=0;entryDy=0;" parent="1" source="8lX21HBY1fIl10csvX2d-24" target="8lX21HBY1fIl10csvX2d-22" edge="1">
          <mxGeometry relative="1" as="geometry" />
        </mxCell>
        <mxCell id="8lX21HBY1fIl10csvX2d-24" value="" style="rounded=0;whiteSpace=wrap;html=1;" parent="1" vertex="1">
          <mxGeometry x="933.25" y="630" width="523.5" height="50" as="geometry" />
        </mxCell>
        <mxCell id="8lX21HBY1fIl10csvX2d-15" style="edgeStyle=orthogonalEdgeStyle;rounded=0;orthogonalLoop=1;jettySize=auto;html=1;exitX=0.5;exitY=1;exitDx=0;exitDy=0;entryX=0.5;entryY=0;entryDx=0;entryDy=0;" parent="1" source="8lX21HBY1fIl10csvX2d-11" target="8lX21HBY1fIl10csvX2d-14" edge="1">
          <mxGeometry relative="1" as="geometry" />
        </mxCell>
        <mxCell id="8lX21HBY1fIl10csvX2d-11" value="" style="rounded=0;whiteSpace=wrap;html=1;" parent="1" vertex="1">
          <mxGeometry x="870" y="310" width="650" height="140" as="geometry" />
        </mxCell>
        <mxCell id="IQwuNEC89kdCFAj0Ew5a-8" value="" style="edgeStyle=orthogonalEdgeStyle;rounded=0;orthogonalLoop=1;jettySize=auto;html=1;" parent="1" source="IQwuNEC89kdCFAj0Ew5a-1" target="IQwuNEC89kdCFAj0Ew5a-7" edge="1">
          <mxGeometry relative="1" as="geometry" />
        </mxCell>
        <mxCell id="IQwuNEC89kdCFAj0Ew5a-1" value="&lt;font color=&quot;#ff3333&quot;&gt;bcm2711.dtsi&lt;/font&gt;" style="text;html=1;align=center;verticalAlign=middle;whiteSpace=wrap;rounded=0;" parent="1" vertex="1">
          <mxGeometry x="235" y="220" width="100" height="30" as="geometry" />
        </mxCell>
        <mxCell id="IQwuNEC89kdCFAj0Ew5a-3" value="树莓派4b:" style="text;html=1;align=center;verticalAlign=middle;whiteSpace=wrap;rounded=0;" parent="1" vertex="1">
          <mxGeometry x="120" y="200" width="60" height="30" as="geometry" />
        </mxCell>
        <mxCell id="IQwuNEC89kdCFAj0Ew5a-6" value="" style="edgeStyle=orthogonalEdgeStyle;rounded=0;orthogonalLoop=1;jettySize=auto;html=1;" parent="1" source="IQwuNEC89kdCFAj0Ew5a-4" target="IQwuNEC89kdCFAj0Ew5a-1" edge="1">
          <mxGeometry relative="1" as="geometry" />
        </mxCell>
        <mxCell id="IQwuNEC89kdCFAj0Ew5a-4" value="&lt;font color=&quot;#ff3333&quot;&gt;bcm283x.dtsi&lt;/font&gt;" style="text;html=1;align=center;verticalAlign=middle;whiteSpace=wrap;rounded=0;" parent="1" vertex="1">
          <mxGeometry x="235" y="160" width="100" height="30" as="geometry" />
        </mxCell>
        <mxCell id="IQwuNEC89kdCFAj0Ew5a-7" value="&lt;font color=&quot;#ff3333&quot;&gt;bcm2711-rpi-4-b.dts&lt;/font&gt;" style="text;html=1;align=center;verticalAlign=middle;whiteSpace=wrap;rounded=0;" parent="1" vertex="1">
          <mxGeometry x="322.5" y="360" width="125" height="30" as="geometry" />
        </mxCell>
        <mxCell id="IQwuNEC89kdCFAj0Ew5a-9" value="&lt;div style=&quot;color: rgb(171, 178, 191); background-color: rgb(40, 44, 52); font-family: Consolas, &amp;quot;Courier New&amp;quot;, monospace; font-size: 11px; line-height: 19px; white-space: pre;&quot;&gt;&lt;div style=&quot;font-size: 11px;&quot;&gt;&amp;nbsp; &amp;nbsp; &amp;nbsp; &amp;nbsp; &lt;span style=&quot;color: rgb(229, 192, 123); font-size: 11px;&quot;&gt;vc4&lt;/span&gt;: &lt;span style=&quot;color: rgb(97, 175, 239); font-size: 11px;&quot;&gt;gpu&lt;/span&gt; {&lt;/div&gt;&lt;div style=&quot;font-size: 11px;&quot;&gt;&amp;nbsp; &amp;nbsp; &amp;nbsp; &amp;nbsp; &amp;nbsp; &amp;nbsp; &amp;nbsp; &amp;nbsp; compatible = &lt;span style=&quot;color: rgb(152, 195, 121); font-size: 11px;&quot;&gt;&quot;brcm,bcm2711-vc5&quot;&lt;/span&gt;;&lt;/div&gt;&lt;div style=&quot;font-size: 11px;&quot;&gt;&amp;nbsp; &amp;nbsp; &amp;nbsp; &amp;nbsp; &amp;nbsp; &amp;nbsp; &amp;nbsp; &amp;nbsp; status = &lt;span style=&quot;color: rgb(152, 195, 121); font-size: 11px;&quot;&gt;&quot;disabled&quot;&lt;/span&gt;;&lt;/div&gt;&lt;div style=&quot;font-size: 11px;&quot;&gt;&amp;nbsp; &amp;nbsp; &amp;nbsp; &amp;nbsp; };&lt;/div&gt;&lt;/div&gt;" style="text;whiteSpace=wrap;html=1;labelBackgroundColor=#CC99FF;fontSize=11;" parent="1" vertex="1">
          <mxGeometry x="288.75" y="710" width="311.25" height="90" as="geometry" />
        </mxCell>
        <mxCell id="IQwuNEC89kdCFAj0Ew5a-14" style="edgeStyle=orthogonalEdgeStyle;rounded=0;orthogonalLoop=1;jettySize=auto;html=1;exitX=0.5;exitY=1;exitDx=0;exitDy=0;entryX=0.5;entryY=0;entryDx=0;entryDy=0;" parent="1" source="IQwuNEC89kdCFAj0Ew5a-13" target="IQwuNEC89kdCFAj0Ew5a-7" edge="1">
          <mxGeometry relative="1" as="geometry" />
        </mxCell>
        <mxCell id="IQwuNEC89kdCFAj0Ew5a-13" value="&lt;font color=&quot;#ff3333&quot;&gt;bcm2711-rpi.dtsi&lt;/font&gt;" style="text;html=1;align=center;verticalAlign=middle;whiteSpace=wrap;rounded=0;" parent="1" vertex="1">
          <mxGeometry x="415" y="220" width="100" height="30" as="geometry" />
        </mxCell>
        <mxCell id="IQwuNEC89kdCFAj0Ew5a-15" value="&lt;div style=&quot;color: rgb(171, 178, 191); background-color: rgb(40, 44, 52); font-family: Consolas, &amp;quot;Courier New&amp;quot;, monospace; font-size: 11px; line-height: 19px; white-space: pre;&quot;&gt;&lt;div style=&quot;font-size: 11px;&quot;&gt;&lt;span style=&quot;color: rgb(224, 108, 117); font-size: 11px;&quot;&gt;&amp;amp;hdmi0&lt;/span&gt; {&lt;/div&gt;&lt;div style=&quot;font-size: 11px;&quot;&gt;&amp;nbsp; &amp;nbsp; &amp;nbsp; &amp;nbsp; clocks = &amp;lt;&lt;span style=&quot;color: rgb(224, 108, 117); font-size: 11px;&quot;&gt;&amp;amp;firmware_clocks&lt;/span&gt; &lt;span style=&quot;color: rgb(209, 154, 102); font-size: 11px;&quot;&gt;13&lt;/span&gt;&amp;gt;, &amp;lt;&lt;span style=&quot;color: rgb(224, 108, 117); font-size: 11px;&quot;&gt;&amp;amp;firmware_clocks&lt;/span&gt; &lt;span style=&quot;color: rgb(209, 154, 102); font-size: 11px;&quot;&gt;14&lt;/span&gt;&amp;gt;, &amp;lt;&lt;span style=&quot;color: rgb(224, 108, 117); font-size: 11px;&quot;&gt;&amp;amp;dvp&lt;/span&gt; &lt;span style=&quot;color: rgb(209, 154, 102); font-size: 11px;&quot;&gt;0&lt;/span&gt;&amp;gt;, &amp;lt;&lt;span style=&quot;color: rgb(224, 108, 117); font-size: 11px;&quot;&gt;&amp;amp;clk_27MHz&lt;/span&gt;&amp;gt;;&lt;/div&gt;&lt;div style=&quot;font-size: 11px;&quot;&gt;&amp;nbsp; &amp;nbsp; &amp;nbsp; &amp;nbsp; clock-names = &lt;span style=&quot;color: rgb(152, 195, 121); font-size: 11px;&quot;&gt;&quot;hdmi&quot;&lt;/span&gt;, &lt;span style=&quot;color: rgb(152, 195, 121); font-size: 11px;&quot;&gt;&quot;bvb&quot;&lt;/span&gt;, &lt;span style=&quot;color: rgb(152, 195, 121); font-size: 11px;&quot;&gt;&quot;audio&quot;&lt;/span&gt;, &lt;span style=&quot;color: rgb(152, 195, 121); font-size: 11px;&quot;&gt;&quot;cec&quot;&lt;/span&gt;;&lt;/div&gt;&lt;div style=&quot;font-size: 11px;&quot;&gt;&amp;nbsp; &amp;nbsp; &amp;nbsp; &amp;nbsp; wifi-2.4ghz-coexistence;&lt;/div&gt;&lt;div style=&quot;font-size: 11px;&quot;&gt;};&lt;/div&gt;&lt;div style=&quot;font-size: 11px;&quot;&gt;&lt;span style=&quot;color: rgb(224, 108, 117); font-size: 11px;&quot;&gt;&amp;amp;hdmi1&lt;/span&gt; {&lt;/div&gt;&lt;div style=&quot;font-size: 11px;&quot;&gt;&amp;nbsp; &amp;nbsp; &amp;nbsp; &amp;nbsp; clocks = &amp;lt;&lt;span style=&quot;color: rgb(224, 108, 117); font-size: 11px;&quot;&gt;&amp;amp;firmware_clocks&lt;/span&gt; &lt;span style=&quot;color: rgb(209, 154, 102); font-size: 11px;&quot;&gt;13&lt;/span&gt;&amp;gt;, &amp;lt;&lt;span style=&quot;color: rgb(224, 108, 117); font-size: 11px;&quot;&gt;&amp;amp;firmware_clocks&lt;/span&gt; &lt;span style=&quot;color: rgb(209, 154, 102); font-size: 11px;&quot;&gt;14&lt;/span&gt;&amp;gt;, &amp;lt;&lt;span style=&quot;color: rgb(224, 108, 117); font-size: 11px;&quot;&gt;&amp;amp;dvp&lt;/span&gt; &lt;span style=&quot;color: rgb(209, 154, 102); font-size: 11px;&quot;&gt;1&lt;/span&gt;&amp;gt;, &amp;lt;&lt;span style=&quot;color: rgb(224, 108, 117); font-size: 11px;&quot;&gt;&amp;amp;clk_27MHz&lt;/span&gt;&amp;gt;;&lt;/div&gt;&lt;div style=&quot;font-size: 11px;&quot;&gt;&amp;nbsp; &amp;nbsp; &amp;nbsp; &amp;nbsp; clock-names = &lt;span style=&quot;color: rgb(152, 195, 121); font-size: 11px;&quot;&gt;&quot;hdmi&quot;&lt;/span&gt;, &lt;span style=&quot;color: rgb(152, 195, 121); font-size: 11px;&quot;&gt;&quot;bvb&quot;&lt;/span&gt;, &lt;span style=&quot;color: rgb(152, 195, 121); font-size: 11px;&quot;&gt;&quot;audio&quot;&lt;/span&gt;, &lt;span style=&quot;color: rgb(152, 195, 121); font-size: 11px;&quot;&gt;&quot;cec&quot;&lt;/span&gt;;&lt;/div&gt;&lt;div style=&quot;font-size: 11px;&quot;&gt;&amp;nbsp; &amp;nbsp; &amp;nbsp; &amp;nbsp; wifi-2.4ghz-coexistence;&lt;/div&gt;&lt;div style=&quot;font-size: 11px;&quot;&gt;};&lt;/div&gt;&lt;/div&gt;" style="text;whiteSpace=wrap;html=1;labelBackgroundColor=#CC99FF;fontSize=11;" parent="1" vertex="1">
          <mxGeometry x="297.5" y="1260" width="530" height="220" as="geometry" />
        </mxCell>
        <mxCell id="IQwuNEC89kdCFAj0Ew5a-17" style="edgeStyle=orthogonalEdgeStyle;rounded=0;orthogonalLoop=1;jettySize=auto;html=1;exitX=0.5;exitY=1;exitDx=0;exitDy=0;entryX=0.5;entryY=0;entryDx=0;entryDy=0;" parent="1" source="IQwuNEC89kdCFAj0Ew5a-16" target="IQwuNEC89kdCFAj0Ew5a-13" edge="1">
          <mxGeometry relative="1" as="geometry" />
        </mxCell>
        <mxCell id="IQwuNEC89kdCFAj0Ew5a-16" value="bcm2835-rpi.dtsi" style="text;html=1;align=center;verticalAlign=middle;whiteSpace=wrap;rounded=0;fontColor=#FF3333;" parent="1" vertex="1">
          <mxGeometry x="415" y="160" width="100" height="30" as="geometry" />
        </mxCell>
        <mxCell id="IQwuNEC89kdCFAj0Ew5a-18" value="&lt;font color=&quot;#1a1a1a&quot;&gt;bcm2711.dtsi:&lt;/font&gt;" style="text;html=1;align=center;verticalAlign=middle;whiteSpace=wrap;rounded=0;" parent="1" vertex="1">
          <mxGeometry x="10" y="700" width="100" height="30" as="geometry" />
        </mxCell>
        <mxCell id="IQwuNEC89kdCFAj0Ew5a-19" value="&lt;font color=&quot;#1a1a1a&quot;&gt;bcm2711-rpi.dtsi&lt;/font&gt;" style="text;html=1;align=center;verticalAlign=middle;whiteSpace=wrap;rounded=0;" parent="1" vertex="1">
          <mxGeometry x="175" y="1325" width="100" height="30" as="geometry" />
        </mxCell>
        <mxCell id="IQwuNEC89kdCFAj0Ew5a-20" value="&lt;div style=&quot;color: rgb(171, 178, 191); background-color: rgb(40, 44, 52); font-family: Consolas, &amp;quot;Courier New&amp;quot;, monospace; font-weight: normal; font-size: 11px; line-height: 19px; white-space: pre;&quot;&gt;&lt;div style=&quot;font-size: 11px;&quot;&gt;&lt;span style=&quot;color: rgb(224, 108, 117); font-size: 11px;&quot;&gt;&amp;amp;dsi0&lt;/span&gt;&lt;span style=&quot;color: rgb(171, 178, 191); font-size: 11px;&quot;&gt; {&lt;/span&gt;&lt;/div&gt;&lt;div style=&quot;font-size: 11px;&quot;&gt;&lt;span style=&quot;color: rgb(171, 178, 191); font-size: 11px;&quot;&gt;&amp;nbsp; &amp;nbsp; &amp;nbsp; &amp;nbsp; power-domains = &amp;lt;&lt;/span&gt;&lt;span style=&quot;color: rgb(224, 108, 117); font-size: 11px;&quot;&gt;&amp;amp;power&lt;/span&gt;&lt;span style=&quot;color: rgb(171, 178, 191); font-size: 11px;&quot;&gt; &lt;/span&gt;&lt;span style=&quot;color: rgb(209, 154, 102); font-size: 11px;&quot;&gt;RPI_POWER_DOMAIN_DSI0&lt;/span&gt;&lt;span style=&quot;color: rgb(171, 178, 191); font-size: 11px;&quot;&gt;&amp;gt;;&lt;/span&gt;&lt;/div&gt;&lt;div style=&quot;font-size: 11px;&quot;&gt;&lt;span style=&quot;color: rgb(171, 178, 191); font-size: 11px;&quot;&gt;};&lt;/span&gt;&lt;/div&gt;&lt;div style=&quot;font-size: 11px;&quot;&gt;&lt;span style=&quot;color: rgb(224, 108, 117); font-size: 11px;&quot;&gt;&amp;amp;dsi1&lt;/span&gt;&lt;span style=&quot;color: rgb(171, 178, 191); font-size: 11px;&quot;&gt; {&lt;/span&gt;&lt;/div&gt;&lt;div style=&quot;font-size: 11px;&quot;&gt;&lt;span style=&quot;color: rgb(171, 178, 191); font-size: 11px;&quot;&gt;&amp;nbsp; &amp;nbsp; &amp;nbsp; &amp;nbsp; power-domains = &amp;lt;&lt;/span&gt;&lt;span style=&quot;color: rgb(224, 108, 117); font-size: 11px;&quot;&gt;&amp;amp;power&lt;/span&gt;&lt;span style=&quot;color: rgb(171, 178, 191); font-size: 11px;&quot;&gt; &lt;/span&gt;&lt;span style=&quot;color: rgb(209, 154, 102); font-size: 11px;&quot;&gt;RPI_POWER_DOMAIN_DSI1&lt;/span&gt;&lt;span style=&quot;color: rgb(171, 178, 191); font-size: 11px;&quot;&gt;&amp;gt;;&lt;/span&gt;&lt;/div&gt;&lt;div style=&quot;font-size: 11px;&quot;&gt;&lt;span style=&quot;color: rgb(171, 178, 191); font-size: 11px;&quot;&gt;};&lt;/span&gt;&lt;/div&gt;&lt;/div&gt;" style="text;whiteSpace=wrap;html=1;fontSize=11;" parent="1" vertex="1">
          <mxGeometry x="297.5" y="1490" width="350" height="140" as="geometry" />
        </mxCell>
        <mxCell id="IQwuNEC89kdCFAj0Ew5a-21" value="bcm2835-rpi.dtsi" style="text;html=1;align=center;verticalAlign=middle;whiteSpace=wrap;rounded=0;fontColor=#1A1A1A;" parent="1" vertex="1">
          <mxGeometry x="177.5" y="1530" width="100" height="30" as="geometry" />
        </mxCell>
        <mxCell id="IQwuNEC89kdCFAj0Ew5a-22" value="&lt;font color=&quot;#1a1a1a&quot;&gt;bcm2711-rpi-4-b.dts&lt;/font&gt;" style="text;html=1;align=center;verticalAlign=middle;whiteSpace=wrap;rounded=0;" parent="1" vertex="1">
          <mxGeometry x="162.5" y="1720" width="125" height="30" as="geometry" />
        </mxCell>
        <mxCell id="IQwuNEC89kdCFAj0Ew5a-23" value="&lt;div style=&quot;color: rgb(171, 178, 191); background-color: rgb(40, 44, 52); font-family: Consolas, &amp;quot;Courier New&amp;quot;, monospace; font-size: 14px; line-height: 19px; white-space: pre;&quot;&gt;&lt;div&gt;&lt;span style=&quot;color: #e06c75;&quot;&gt;&amp;amp;hdmi0&lt;/span&gt; {&lt;/div&gt;&lt;div&gt;&amp;nbsp; &amp;nbsp; &amp;nbsp; &amp;nbsp; status = &lt;span style=&quot;color: #98c379;&quot;&gt;&quot;okay&quot;&lt;/span&gt;;&lt;/div&gt;&lt;div&gt;};&lt;/div&gt;&lt;div&gt;&lt;span style=&quot;color: #e06c75;&quot;&gt;&amp;amp;hdmi1&lt;/span&gt; {&lt;/div&gt;&lt;div&gt;&amp;nbsp; &amp;nbsp; &amp;nbsp; &amp;nbsp; status = &lt;span style=&quot;color: #98c379;&quot;&gt;&quot;okay&quot;&lt;/span&gt;;&lt;/div&gt;&lt;div&gt;};&lt;/div&gt;&lt;div&gt;&lt;div style=&quot;line-height: 19px;&quot;&gt;&lt;div&gt;&lt;span style=&quot;color: #e06c75;&quot;&gt;&amp;amp;vc4&lt;/span&gt; {&lt;/div&gt;&lt;div&gt;&amp;nbsp; &amp;nbsp; &amp;nbsp; &amp;nbsp; status = &lt;span style=&quot;color: #98c379;&quot;&gt;&quot;okay&quot;&lt;/span&gt;;&lt;/div&gt;&lt;div&gt;};&lt;/div&gt;&lt;/div&gt;&lt;/div&gt;&lt;/div&gt;" style="text;whiteSpace=wrap;html=1;labelBackgroundColor=#CC99FF;" parent="1" vertex="1">
          <mxGeometry x="307.5" y="1650" width="215" height="190" as="geometry" />
        </mxCell>
        <mxCell id="IQwuNEC89kdCFAj0Ew5a-26" value="&lt;div style=&quot;color: rgb(171, 178, 191); background-color: rgb(40, 44, 52); font-family: Consolas, &amp;quot;Courier New&amp;quot;, monospace; font-weight: normal; font-size: 11px; line-height: 19px; white-space: pre;&quot;&gt;&lt;div style=&quot;font-size: 11px;&quot;&gt;&lt;span style=&quot;color: rgb(171, 178, 191); font-size: 11px;&quot;&gt;&amp;nbsp; &amp;nbsp; &amp;nbsp; &amp;nbsp; &amp;nbsp; &amp;nbsp; &amp;nbsp; &amp;nbsp; &lt;/span&gt;&lt;span style=&quot;color: rgb(229, 192, 123); font-size: 11px;&quot;&gt;pixelvalve0&lt;/span&gt;&lt;span style=&quot;color: rgb(171, 178, 191); font-size: 11px;&quot;&gt;: &lt;/span&gt;&lt;span style=&quot;color: rgb(97, 175, 239); font-size: 11px;&quot;&gt;pixelvalve@7e206000&lt;/span&gt;&lt;span style=&quot;color: rgb(171, 178, 191); font-size: 11px;&quot;&gt; {&lt;/span&gt;&lt;/div&gt;&lt;div style=&quot;font-size: 11px;&quot;&gt;&lt;span style=&quot;color: rgb(171, 178, 191); font-size: 11px;&quot;&gt;&amp;nbsp; &amp;nbsp; &amp;nbsp; &amp;nbsp; &amp;nbsp; &amp;nbsp; &amp;nbsp; &amp;nbsp; &amp;nbsp; &amp;nbsp; &amp;nbsp; &amp;nbsp; compatible = &lt;/span&gt;&lt;span style=&quot;color: rgb(152, 195, 121); font-size: 11px;&quot;&gt;&quot;brcm,bcm2711-pixelvalve0&quot;&lt;/span&gt;&lt;span style=&quot;color: rgb(171, 178, 191); font-size: 11px;&quot;&gt;;&lt;/span&gt;&lt;/div&gt;&lt;div style=&quot;font-size: 11px;&quot;&gt;&lt;span style=&quot;color: rgb(171, 178, 191); font-size: 11px;&quot;&gt;&amp;nbsp; &amp;nbsp; &amp;nbsp; &amp;nbsp; &amp;nbsp; &amp;nbsp; &amp;nbsp; &amp;nbsp; };&lt;/span&gt;&lt;/div&gt;&lt;/div&gt;" style="text;whiteSpace=wrap;html=1;fontSize=11;" parent="1" vertex="1">
          <mxGeometry x="290" y="810" width="400" height="70" as="geometry" />
        </mxCell>
        <mxCell id="IQwuNEC89kdCFAj0Ew5a-27" value="vc4_crtc.c:" style="text;html=1;align=center;verticalAlign=middle;resizable=0;points=[];autosize=1;strokeColor=none;fillColor=none;" parent="1" vertex="1">
          <mxGeometry x="110" y="830" width="80" height="30" as="geometry" />
        </mxCell>
        <mxCell id="IQwuNEC89kdCFAj0Ew5a-28" value="&lt;div style=&quot;color: rgb(171, 178, 191); background-color: rgb(40, 44, 52); font-family: Consolas, &amp;quot;Courier New&amp;quot;, monospace; font-weight: normal; font-size: 11px; line-height: 19px; white-space: pre;&quot;&gt;&lt;div style=&quot;font-size: 11px;&quot;&gt;&lt;div style=&quot;font-size: 11px; line-height: 19px;&quot;&gt;&lt;div style=&quot;font-size: 11px;&quot;&gt;&amp;nbsp; &amp;nbsp; &amp;nbsp; &amp;nbsp; &amp;nbsp; &amp;nbsp; &amp;nbsp; &amp;nbsp; &lt;span style=&quot;color: rgb(229, 192, 123); font-size: 11px;&quot;&gt;pixelvalve1&lt;/span&gt;: &lt;span style=&quot;color: rgb(97, 175, 239); font-size: 11px;&quot;&gt;pixelvalve@7e207000&lt;/span&gt; {&lt;/div&gt;&lt;div style=&quot;font-size: 11px;&quot;&gt;&amp;nbsp; &amp;nbsp; &amp;nbsp; &amp;nbsp; &amp;nbsp; &amp;nbsp; &amp;nbsp; &amp;nbsp; &amp;nbsp; &amp;nbsp; &amp;nbsp; &amp;nbsp; compatible = &lt;span style=&quot;color: rgb(152, 195, 121); font-size: 11px;&quot;&gt;&quot;brcm,bcm2711-pixelvalve1&quot;&lt;/span&gt;;&lt;/div&gt;&lt;div style=&quot;font-size: 11px;&quot;&gt;&amp;nbsp; &amp;nbsp; &amp;nbsp; &amp;nbsp; &amp;nbsp; &amp;nbsp; &amp;nbsp; &amp;nbsp; };&lt;/div&gt;&lt;/div&gt;&lt;/div&gt;&lt;/div&gt;" style="text;whiteSpace=wrap;html=1;fontSize=11;" parent="1" vertex="1">
          <mxGeometry x="290" y="880" width="390" height="70" as="geometry" />
        </mxCell>
        <mxCell id="IQwuNEC89kdCFAj0Ew5a-29" value="&lt;div style=&quot;color: rgb(171, 178, 191); background-color: rgb(40, 44, 52); font-family: Consolas, &amp;quot;Courier New&amp;quot;, monospace; font-weight: normal; font-size: 11px; line-height: 19px; white-space: pre;&quot;&gt;&lt;div style=&quot;font-size: 11px;&quot;&gt;&lt;span style=&quot;color: rgb(171, 178, 191); font-size: 11px;&quot;&gt;&amp;nbsp; &amp;nbsp; &amp;nbsp; &amp;nbsp; &amp;nbsp; &amp;nbsp; &amp;nbsp; &amp;nbsp; &lt;/span&gt;&lt;span style=&quot;color: rgb(229, 192, 123); font-size: 11px;&quot;&gt;pixelvalve2&lt;/span&gt;&lt;span style=&quot;color: rgb(171, 178, 191); font-size: 11px;&quot;&gt;: &lt;/span&gt;&lt;span style=&quot;color: rgb(97, 175, 239); font-size: 11px;&quot;&gt;pixelvalve@7e20a000&lt;/span&gt;&lt;span style=&quot;color: rgb(171, 178, 191); font-size: 11px;&quot;&gt; {&lt;/span&gt;&lt;/div&gt;&lt;div style=&quot;font-size: 11px;&quot;&gt;&lt;span style=&quot;color: rgb(171, 178, 191); font-size: 11px;&quot;&gt;&amp;nbsp; &amp;nbsp; &amp;nbsp; &amp;nbsp; &amp;nbsp; &amp;nbsp; &amp;nbsp; &amp;nbsp; &amp;nbsp; &amp;nbsp; &amp;nbsp; &amp;nbsp; compatible = &lt;/span&gt;&lt;span style=&quot;color: rgb(152, 195, 121); font-size: 11px;&quot;&gt;&quot;brcm,bcm2711-pixelvalve2&quot;&lt;/span&gt;&lt;span style=&quot;color: rgb(171, 178, 191); font-size: 11px;&quot;&gt;;&lt;/span&gt;&lt;/div&gt;&lt;div style=&quot;font-size: 11px;&quot;&gt;&lt;span style=&quot;color: rgb(171, 178, 191); font-size: 11px;&quot;&gt;&amp;nbsp; &amp;nbsp; &amp;nbsp; &amp;nbsp; &amp;nbsp; &amp;nbsp; &amp;nbsp; &amp;nbsp; };&lt;/span&gt;&lt;/div&gt;&lt;/div&gt;" style="text;whiteSpace=wrap;html=1;fontSize=11;" parent="1" vertex="1">
          <mxGeometry x="287.5" y="950" width="392.5" height="70" as="geometry" />
        </mxCell>
        <mxCell id="IQwuNEC89kdCFAj0Ew5a-30" value="crtc0" style="text;html=1;align=center;verticalAlign=middle;resizable=0;points=[];autosize=1;strokeColor=none;fillColor=none;" parent="1" vertex="1">
          <mxGeometry x="202.5" y="830" width="50" height="30" as="geometry" />
        </mxCell>
        <mxCell id="IQwuNEC89kdCFAj0Ew5a-31" value="crtc1" style="text;html=1;align=center;verticalAlign=middle;resizable=0;points=[];autosize=1;strokeColor=none;fillColor=none;" parent="1" vertex="1">
          <mxGeometry x="202.5" y="900" width="50" height="30" as="geometry" />
        </mxCell>
        <mxCell id="IQwuNEC89kdCFAj0Ew5a-32" value="crtc2" style="text;html=1;align=center;verticalAlign=middle;resizable=0;points=[];autosize=1;strokeColor=none;fillColor=none;" parent="1" vertex="1">
          <mxGeometry x="202.5" y="970" width="50" height="30" as="geometry" />
        </mxCell>
        <mxCell id="IQwuNEC89kdCFAj0Ew5a-33" value="&lt;font color=&quot;#1a1a1a&quot;&gt;bcm283x.dtsi&lt;/font&gt;" style="text;html=1;align=center;verticalAlign=middle;whiteSpace=wrap;rounded=0;" parent="1" vertex="1">
          <mxGeometry y="470" width="100" height="30" as="geometry" />
        </mxCell>
        <mxCell id="IQwuNEC89kdCFAj0Ew5a-34" value="&lt;div style=&quot;color: rgb(171, 178, 191); background-color: rgb(40, 44, 52); font-family: Consolas, &amp;quot;Courier New&amp;quot;, monospace; font-weight: normal; font-size: 11px; line-height: 19px; white-space: pre;&quot;&gt;&lt;div style=&quot;font-size: 11px;&quot;&gt;&lt;span style=&quot;color: rgb(171, 178, 191); font-size: 11px;&quot;&gt;&amp;nbsp; &amp;nbsp; &amp;nbsp; &amp;nbsp; &amp;nbsp; &amp;nbsp; &amp;nbsp; &amp;nbsp; &lt;/span&gt;&lt;span style=&quot;color: rgb(229, 192, 123); font-size: 11px;&quot;&gt;dpi&lt;/span&gt;&lt;span style=&quot;color: rgb(171, 178, 191); font-size: 11px;&quot;&gt;: &lt;/span&gt;&lt;span style=&quot;color: rgb(97, 175, 239); font-size: 11px;&quot;&gt;dpi@7e208000&lt;/span&gt;&lt;span style=&quot;color: rgb(171, 178, 191); font-size: 11px;&quot;&gt; {&lt;/span&gt;&lt;/div&gt;&lt;div style=&quot;font-size: 11px;&quot;&gt;&lt;span style=&quot;color: rgb(171, 178, 191); font-size: 11px;&quot;&gt;&amp;nbsp; &amp;nbsp; &amp;nbsp; &amp;nbsp; &amp;nbsp; &amp;nbsp; &amp;nbsp; &amp;nbsp; &amp;nbsp; &amp;nbsp; &amp;nbsp; &amp;nbsp; compatible = &lt;/span&gt;&lt;span style=&quot;color: rgb(152, 195, 121); font-size: 11px;&quot;&gt;&quot;brcm,bcm2835-dpi&quot;&lt;/span&gt;&lt;span style=&quot;color: rgb(171, 178, 191); font-size: 11px;&quot;&gt;;&lt;/span&gt;&lt;/div&gt;&lt;div style=&quot;font-size: 11px;&quot;&gt;&lt;span style=&quot;color: rgb(171, 178, 191); font-size: 11px;&quot;&gt;&amp;nbsp; &amp;nbsp; &amp;nbsp; &amp;nbsp; &amp;nbsp; &amp;nbsp; &amp;nbsp; &amp;nbsp; };&lt;/span&gt;&lt;/div&gt;&lt;/div&gt;" style="text;whiteSpace=wrap;html=1;fontSize=11;" parent="1" vertex="1">
          <mxGeometry x="290" y="460" width="350" height="70" as="geometry" />
        </mxCell>
        <mxCell id="IQwuNEC89kdCFAj0Ew5a-35" value="&lt;div style=&quot;color: rgb(171, 178, 191); background-color: rgb(40, 44, 52); font-family: Consolas, &amp;quot;Courier New&amp;quot;, monospace; font-weight: normal; font-size: 11px; line-height: 19px; white-space: pre;&quot;&gt;&lt;div style=&quot;font-size: 11px;&quot;&gt;&lt;span style=&quot;color: rgb(171, 178, 191); font-size: 11px;&quot;&gt;&amp;nbsp; &amp;nbsp; &amp;nbsp; &amp;nbsp; &amp;nbsp; &amp;nbsp; &amp;nbsp; &amp;nbsp; &lt;/span&gt;&lt;span style=&quot;color: rgb(229, 192, 123); font-size: 11px;&quot;&gt;dsi0&lt;/span&gt;&lt;span style=&quot;color: rgb(171, 178, 191); font-size: 11px;&quot;&gt;: &lt;/span&gt;&lt;span style=&quot;color: rgb(97, 175, 239); font-size: 11px;&quot;&gt;dsi@7e209000&lt;/span&gt;&lt;span style=&quot;color: rgb(171, 178, 191); font-size: 11px;&quot;&gt; {&lt;/span&gt;&lt;/div&gt;&lt;div style=&quot;font-size: 11px;&quot;&gt;&lt;span style=&quot;color: rgb(171, 178, 191); font-size: 11px;&quot;&gt;&amp;nbsp; &amp;nbsp; &amp;nbsp; &amp;nbsp; &amp;nbsp; &amp;nbsp; &amp;nbsp; &amp;nbsp; &amp;nbsp; &amp;nbsp; &amp;nbsp; &amp;nbsp; compatible = &lt;/span&gt;&lt;span style=&quot;color: rgb(152, 195, 121); font-size: 11px;&quot;&gt;&quot;brcm,bcm2835-dsi0&quot;&lt;/span&gt;&lt;span style=&quot;color: rgb(171, 178, 191); font-size: 11px;&quot;&gt;;&lt;/span&gt;&lt;/div&gt;&lt;div style=&quot;font-size: 11px;&quot;&gt;&lt;span style=&quot;color: rgb(171, 178, 191); font-size: 11px;&quot;&gt;&amp;nbsp; &amp;nbsp; &amp;nbsp; &amp;nbsp; &amp;nbsp; &amp;nbsp; &amp;nbsp; &amp;nbsp; };&lt;/span&gt;&lt;/div&gt;&lt;/div&gt;" style="text;whiteSpace=wrap;html=1;fontSize=11;" parent="1" vertex="1">
          <mxGeometry x="287.5" y="520" width="360" height="70" as="geometry" />
        </mxCell>
        <mxCell id="IQwuNEC89kdCFAj0Ew5a-36" value="&lt;div style=&quot;color: rgb(171, 178, 191); background-color: rgb(40, 44, 52); font-family: Consolas, &amp;quot;Courier New&amp;quot;, monospace; font-weight: normal; font-size: 11px; line-height: 19px; white-space: pre;&quot;&gt;&lt;div style=&quot;font-size: 11px;&quot;&gt;&lt;span style=&quot;color: rgb(171, 178, 191); font-size: 11px;&quot;&gt;&amp;nbsp; &amp;nbsp; &amp;nbsp; &amp;nbsp; &amp;nbsp; &amp;nbsp; &amp;nbsp; &amp;nbsp; &lt;/span&gt;&lt;span style=&quot;font-size: 11px; color: rgb(229, 192, 123);&quot;&gt;dsi1&lt;/span&gt;&lt;span style=&quot;font-size: 11px;&quot;&gt;: &lt;/span&gt;&lt;span style=&quot;font-size: 11px; color: rgb(97, 175, 239);&quot;&gt;dsi@7e700000&lt;/span&gt; {&lt;br style=&quot;font-size: 11px;&quot;&gt;&lt;/div&gt;&lt;div style=&quot;font-size: 11px;&quot;&gt;&lt;span style=&quot;color: rgb(171, 178, 191); font-size: 11px;&quot;&gt;&amp;nbsp; &amp;nbsp; &amp;nbsp; &amp;nbsp; &amp;nbsp; &amp;nbsp; &amp;nbsp; &amp;nbsp; &amp;nbsp; &amp;nbsp; &amp;nbsp; &amp;nbsp; compatible = &lt;/span&gt;&lt;span style=&quot;color: rgb(152, 195, 121); font-size: 11px;&quot;&gt;&quot;brcm,bcm2835-dsi1&quot;&lt;/span&gt;&lt;span style=&quot;color: rgb(171, 178, 191); font-size: 11px;&quot;&gt;;&lt;/span&gt;&lt;/div&gt;&lt;div style=&quot;font-size: 11px;&quot;&gt;&lt;span style=&quot;color: rgb(171, 178, 191); font-size: 11px;&quot;&gt;&amp;nbsp; &amp;nbsp; &amp;nbsp; &amp;nbsp; &amp;nbsp; &amp;nbsp; &amp;nbsp; &amp;nbsp; };&lt;/span&gt;&lt;/div&gt;&lt;/div&gt;" style="text;whiteSpace=wrap;html=1;fontSize=11;" parent="1" vertex="1">
          <mxGeometry x="287.5" y="580" width="360" height="70" as="geometry" />
        </mxCell>
        <mxCell id="IQwuNEC89kdCFAj0Ew5a-37" value="vc4_dpi.c:" style="text;html=1;align=center;verticalAlign=middle;resizable=0;points=[];autosize=1;strokeColor=none;fillColor=none;" parent="1" vertex="1">
          <mxGeometry x="130" y="480" width="80" height="30" as="geometry" />
        </mxCell>
        <mxCell id="IQwuNEC89kdCFAj0Ew5a-38" value="vc4_dsi.c:" style="text;html=1;align=center;verticalAlign=middle;resizable=0;points=[];autosize=1;strokeColor=none;fillColor=none;" parent="1" vertex="1">
          <mxGeometry x="130" y="540" width="80" height="30" as="geometry" />
        </mxCell>
        <mxCell id="IQwuNEC89kdCFAj0Ew5a-39" value="&lt;div style=&quot;color: rgb(171, 178, 191); background-color: rgb(40, 44, 52); font-family: Consolas, &amp;quot;Courier New&amp;quot;, monospace; font-weight: normal; font-size: 11px; line-height: 19px; white-space: pre;&quot;&gt;&lt;div style=&quot;font-size: 11px;&quot;&gt;&lt;span style=&quot;color: rgb(171, 178, 191); font-size: 11px;&quot;&gt;&amp;nbsp; &amp;nbsp; &amp;nbsp; &amp;nbsp; &amp;nbsp; &amp;nbsp; &amp;nbsp; &amp;nbsp; &lt;/span&gt;&lt;span style=&quot;color: rgb(229, 192, 123); font-size: 11px;&quot;&gt;hdmi0&lt;/span&gt;&lt;span style=&quot;color: rgb(171, 178, 191); font-size: 11px;&quot;&gt;: &lt;/span&gt;&lt;span style=&quot;color: rgb(97, 175, 239); font-size: 11px;&quot;&gt;hdmi@7ef00700&lt;/span&gt;&lt;span style=&quot;color: rgb(171, 178, 191); font-size: 11px;&quot;&gt; {&lt;/span&gt;&lt;/div&gt;&lt;div style=&quot;font-size: 11px;&quot;&gt;&lt;span style=&quot;color: rgb(171, 178, 191); font-size: 11px;&quot;&gt;&amp;nbsp; &amp;nbsp; &amp;nbsp; &amp;nbsp; &amp;nbsp; &amp;nbsp; &amp;nbsp; &amp;nbsp; &amp;nbsp; &amp;nbsp; &amp;nbsp; &amp;nbsp; compatible = &lt;/span&gt;&lt;span style=&quot;color: rgb(152, 195, 121); font-size: 11px;&quot;&gt;&quot;brcm,bcm2711-hdmi0&quot;&lt;/span&gt;&lt;span style=&quot;color: rgb(171, 178, 191); font-size: 11px;&quot;&gt;;&lt;/span&gt;&lt;/div&gt;&lt;div style=&quot;font-size: 11px;&quot;&gt;&lt;span style=&quot;color: rgb(171, 178, 191); font-size: 11px;&quot;&gt;&amp;nbsp; &amp;nbsp; &amp;nbsp; &amp;nbsp; &amp;nbsp; &amp;nbsp; &amp;nbsp; &amp;nbsp; &amp;nbsp; &amp;nbsp; &amp;nbsp; &amp;nbsp; ddc = &amp;lt;&lt;/span&gt;&lt;span style=&quot;color: rgb(224, 108, 117); font-size: 11px;&quot;&gt;&amp;amp;ddc0&lt;/span&gt;&lt;span style=&quot;color: rgb(171, 178, 191); font-size: 11px;&quot;&gt;&amp;gt;;&lt;/span&gt;&lt;/div&gt;&lt;div style=&quot;font-size: 11px;&quot;&gt;&lt;span style=&quot;color: rgb(171, 178, 191); font-size: 11px;&quot;&gt;&amp;nbsp; &amp;nbsp; &amp;nbsp; &amp;nbsp; &amp;nbsp; &amp;nbsp; &amp;nbsp; &amp;nbsp; };&lt;/span&gt;&lt;/div&gt;&lt;/div&gt;" style="text;whiteSpace=wrap;html=1;fontSize=11;" parent="1" vertex="1">
          <mxGeometry x="290" y="1080" width="360" height="80" as="geometry" />
        </mxCell>
        <mxCell id="IQwuNEC89kdCFAj0Ew5a-40" value="&lt;div style=&quot;color: rgb(171, 178, 191); background-color: rgb(40, 44, 52); font-family: Consolas, &amp;quot;Courier New&amp;quot;, monospace; font-weight: normal; font-size: 11px; line-height: 19px; white-space: pre;&quot;&gt;&lt;div style=&quot;font-size: 11px;&quot;&gt;&lt;span style=&quot;color: rgb(171, 178, 191); font-size: 11px;&quot;&gt;&amp;nbsp; &amp;nbsp; &amp;nbsp; &amp;nbsp; &amp;nbsp; &amp;nbsp; &amp;nbsp; &amp;nbsp; &lt;/span&gt;&lt;span style=&quot;font-size: 11px; color: rgb(229, 192, 123);&quot;&gt;hdmi1&lt;/span&gt;&lt;span style=&quot;font-size: 11px;&quot;&gt;: &lt;/span&gt;&lt;span style=&quot;font-size: 11px; color: rgb(97, 175, 239);&quot;&gt;hdmi@7ef05700&lt;/span&gt; {&lt;br style=&quot;font-size: 11px;&quot;&gt;&lt;/div&gt;&lt;div style=&quot;font-size: 11px;&quot;&gt;&lt;span style=&quot;color: rgb(171, 178, 191); font-size: 11px;&quot;&gt;&amp;nbsp; &amp;nbsp; &amp;nbsp; &amp;nbsp; &amp;nbsp; &amp;nbsp; &amp;nbsp; &amp;nbsp; &amp;nbsp; &amp;nbsp; &amp;nbsp; &amp;nbsp; compatible = &lt;/span&gt;&lt;span style=&quot;color: rgb(152, 195, 121); font-size: 11px;&quot;&gt;&quot;brcm,bcm2711-hdmi1&quot;&lt;/span&gt;&lt;span style=&quot;color: rgb(171, 178, 191); font-size: 11px;&quot;&gt;;&lt;/span&gt;&lt;/div&gt;&lt;div style=&quot;font-size: 11px;&quot;&gt;&lt;span style=&quot;color: rgb(171, 178, 191); font-size: 11px;&quot;&gt;&amp;nbsp; &amp;nbsp; &amp;nbsp; &amp;nbsp; &amp;nbsp; &amp;nbsp; &amp;nbsp; &amp;nbsp; &amp;nbsp; &amp;nbsp; &amp;nbsp; &amp;nbsp; ddc = &amp;lt;&lt;/span&gt;&lt;span style=&quot;color: rgb(224, 108, 117); font-size: 11px;&quot;&gt;&amp;amp;ddc1&lt;/span&gt;&lt;span style=&quot;color: rgb(171, 178, 191); font-size: 11px;&quot;&gt;&amp;gt;;&lt;/span&gt;&lt;/div&gt;&lt;div style=&quot;font-size: 11px;&quot;&gt;&lt;span style=&quot;color: rgb(171, 178, 191); font-size: 11px;&quot;&gt;&amp;nbsp; &amp;nbsp; &amp;nbsp; &amp;nbsp; &amp;nbsp; &amp;nbsp; &amp;nbsp; &amp;nbsp; };&lt;/span&gt;&lt;/div&gt;&lt;/div&gt;" style="text;whiteSpace=wrap;html=1;fontSize=11;" parent="1" vertex="1">
          <mxGeometry x="290" y="1171" width="360" height="80" as="geometry" />
        </mxCell>
        <mxCell id="IQwuNEC89kdCFAj0Ew5a-41" value="vc4_hdmi.c:" style="text;html=1;align=center;verticalAlign=middle;resizable=0;points=[];autosize=1;strokeColor=none;fillColor=none;" parent="1" vertex="1">
          <mxGeometry x="105" y="1105" width="90" height="30" as="geometry" />
        </mxCell>
        <mxCell id="IQwuNEC89kdCFAj0Ew5a-42" value="hdmi0" style="text;html=1;align=center;verticalAlign=middle;resizable=0;points=[];autosize=1;strokeColor=none;fillColor=none;" parent="1" vertex="1">
          <mxGeometry x="197.5" y="1105" width="60" height="30" as="geometry" />
        </mxCell>
        <mxCell id="IQwuNEC89kdCFAj0Ew5a-43" value="hdmi1" style="text;html=1;align=center;verticalAlign=middle;resizable=0;points=[];autosize=1;strokeColor=none;fillColor=none;" parent="1" vertex="1">
          <mxGeometry x="197.5" y="1196" width="60" height="30" as="geometry" />
        </mxCell>
        <mxCell id="tBX07c4tivHEvZJBObFh-1" value="vc4_drv.c:" style="text;html=1;align=center;verticalAlign=middle;resizable=0;points=[];autosize=1;strokeColor=none;fillColor=none;" parent="1" vertex="1">
          <mxGeometry x="110" y="740" width="80" height="30" as="geometry" />
        </mxCell>
        <mxCell id="tBX07c4tivHEvZJBObFh-2" value="crtc3, crtc4" style="text;html=1;align=center;verticalAlign=middle;whiteSpace=wrap;rounded=0;" parent="1" vertex="1">
          <mxGeometry x="190" y="1030" width="82" height="30" as="geometry" />
        </mxCell>
        <mxCell id="8lX21HBY1fIl10csvX2d-12" style="edgeStyle=orthogonalEdgeStyle;rounded=0;orthogonalLoop=1;jettySize=auto;html=1;exitX=0.5;exitY=1;exitDx=0;exitDy=0;entryX=0.5;entryY=0;entryDx=0;entryDy=0;" parent="1" source="8lX21HBY1fIl10csvX2d-1" target="8lX21HBY1fIl10csvX2d-11" edge="1">
          <mxGeometry relative="1" as="geometry" />
        </mxCell>
        <mxCell id="8lX21HBY1fIl10csvX2d-1" value="&lt;div style=&quot;color: #383a42;background-color: #f5f5f5;font-family: Consolas, &#39;Courier New&#39;, monospace;font-weight: normal;font-size: 14px;line-height: 19px;white-space: pre;&quot;&gt;&lt;div&gt;&lt;span style=&quot;color: #4078f2;&quot;&gt;vc4_drm_register&lt;/span&gt;&lt;/div&gt;&lt;/div&gt;" style="text;whiteSpace=wrap;html=1;" parent="1" vertex="1">
          <mxGeometry x="1130" y="230" width="130" height="40" as="geometry" />
        </mxCell>
        <mxCell id="8lX21HBY1fIl10csvX2d-2" value="&lt;div style=&quot;color: #383a42;background-color: #f5f5f5;font-family: Consolas, &#39;Courier New&#39;, monospace;font-weight: normal;font-size: 14px;line-height: 19px;white-space: pre;&quot;&gt;&lt;div&gt;&lt;span style=&quot;color: #4078f2;&quot;&gt;vc4_hvs_dev_probe&lt;/span&gt;&lt;/div&gt;&lt;/div&gt;" style="text;whiteSpace=wrap;html=1;" parent="1" vertex="1">
          <mxGeometry x="883" y="335" width="140" height="40" as="geometry" />
        </mxCell>
        <mxCell id="8lX21HBY1fIl10csvX2d-3" value="&lt;div style=&quot;color: #383a42;background-color: #f5f5f5;font-family: Consolas, &#39;Courier New&#39;, monospace;font-weight: normal;font-size: 14px;line-height: 19px;white-space: pre;&quot;&gt;&lt;div&gt;&lt;span style=&quot;color: #4078f2;&quot;&gt;vc4_hdmi_dev_probe&lt;/span&gt;&lt;/div&gt;&lt;/div&gt;" style="text;whiteSpace=wrap;html=1;" parent="1" vertex="1">
          <mxGeometry x="1043" y="335" width="170" height="40" as="geometry" />
        </mxCell>
        <mxCell id="8lX21HBY1fIl10csvX2d-4" value="&lt;div style=&quot;color: #383a42;background-color: #f5f5f5;font-family: Consolas, &#39;Courier New&#39;, monospace;font-weight: normal;font-size: 14px;line-height: 19px;white-space: pre;&quot;&gt;&lt;div&gt;&lt;span style=&quot;color: #4078f2;&quot;&gt;vc4_vec_dev_probe&lt;/span&gt;&lt;/div&gt;&lt;/div&gt;" style="text;whiteSpace=wrap;html=1;" parent="1" vertex="1">
          <mxGeometry x="1203" y="335" width="160" height="40" as="geometry" />
        </mxCell>
        <mxCell id="8lX21HBY1fIl10csvX2d-5" value="&lt;div style=&quot;color: #383a42;background-color: #f5f5f5;font-family: Consolas, &#39;Courier New&#39;, monospace;font-weight: normal;font-size: 14px;line-height: 19px;white-space: pre;&quot;&gt;&lt;div&gt;&lt;span style=&quot;color: #4078f2;&quot;&gt;vc4_dpi_dev_probe&lt;/span&gt;&lt;/div&gt;&lt;/div&gt;" style="text;whiteSpace=wrap;html=1;" parent="1" vertex="1">
          <mxGeometry x="1363" y="335" width="160" height="40" as="geometry" />
        </mxCell>
        <mxCell id="8lX21HBY1fIl10csvX2d-6" value="&lt;div style=&quot;color: #383a42;background-color: #f5f5f5;font-family: Consolas, &#39;Courier New&#39;, monospace;font-weight: normal;font-size: 14px;line-height: 19px;white-space: pre;&quot;&gt;&lt;div&gt;&lt;span style=&quot;color: #4078f2;&quot;&gt;vc4_dsi_dev_probe&lt;/span&gt;&lt;/div&gt;&lt;/div&gt;" style="text;whiteSpace=wrap;html=1;" parent="1" vertex="1">
          <mxGeometry x="883" y="400" width="160" height="40" as="geometry" />
        </mxCell>
        <mxCell id="8lX21HBY1fIl10csvX2d-7" value="&lt;div style=&quot;color: #383a42;background-color: #f5f5f5;font-family: Consolas, &#39;Courier New&#39;, monospace;font-weight: normal;font-size: 14px;line-height: 19px;white-space: pre;&quot;&gt;&lt;div&gt;&lt;span style=&quot;color: #4078f2;&quot;&gt;vc4_txp_probe&lt;/span&gt;&lt;/div&gt;&lt;/div&gt;" style="text;whiteSpace=wrap;html=1;" parent="1" vertex="1">
          <mxGeometry x="1063" y="400" width="130" height="40" as="geometry" />
        </mxCell>
        <mxCell id="8lX21HBY1fIl10csvX2d-8" value="&lt;div style=&quot;color: #383a42;background-color: #f5f5f5;font-family: Consolas, &#39;Courier New&#39;, monospace;font-weight: normal;font-size: 14px;line-height: 19px;white-space: pre;&quot;&gt;&lt;div&gt;&lt;span style=&quot;color: #4078f2;&quot;&gt;vc4_crtc_dev_probe&lt;/span&gt;&lt;/div&gt;&lt;/div&gt;" style="text;whiteSpace=wrap;html=1;" parent="1" vertex="1">
          <mxGeometry x="1198" y="400" width="170" height="40" as="geometry" />
        </mxCell>
        <mxCell id="8lX21HBY1fIl10csvX2d-9" value="&lt;div style=&quot;color: #383a42;background-color: #f5f5f5;font-family: Consolas, &#39;Courier New&#39;, monospace;font-weight: normal;font-size: 14px;line-height: 19px;white-space: pre;&quot;&gt;&lt;div&gt;&lt;span style=&quot;color: #4078f2;&quot;&gt;vc4_v3d_dev_probe&lt;/span&gt;&lt;/div&gt;&lt;/div&gt;" style="text;whiteSpace=wrap;html=1;" parent="1" vertex="1">
          <mxGeometry x="1363" y="400" width="160" height="40" as="geometry" />
        </mxCell>
        <mxCell id="8lX21HBY1fIl10csvX2d-17" style="edgeStyle=orthogonalEdgeStyle;rounded=0;orthogonalLoop=1;jettySize=auto;html=1;exitX=0.5;exitY=1;exitDx=0;exitDy=0;entryX=0.5;entryY=0;entryDx=0;entryDy=0;" parent="1" source="8lX21HBY1fIl10csvX2d-14" target="8lX21HBY1fIl10csvX2d-16" edge="1">
          <mxGeometry relative="1" as="geometry" />
        </mxCell>
        <mxCell id="8lX21HBY1fIl10csvX2d-14" value="&lt;div style=&quot;color: #383a42;background-color: #f5f5f5;font-family: Consolas, &#39;Courier New&#39;, monospace;font-weight: normal;font-size: 14px;line-height: 19px;white-space: pre;&quot;&gt;&lt;div&gt;&lt;span style=&quot;color: #4078f2;&quot;&gt;component_add&lt;/span&gt;&lt;/div&gt;&lt;/div&gt;" style="text;whiteSpace=wrap;html=1;" parent="1" vertex="1">
          <mxGeometry x="1138.5" y="490" width="113" height="40" as="geometry" />
        </mxCell>
        <mxCell id="8lX21HBY1fIl10csvX2d-25" style="edgeStyle=orthogonalEdgeStyle;rounded=0;orthogonalLoop=1;jettySize=auto;html=1;exitX=0.5;exitY=1;exitDx=0;exitDy=0;entryX=0.5;entryY=0;entryDx=0;entryDy=0;" parent="1" source="8lX21HBY1fIl10csvX2d-16" target="8lX21HBY1fIl10csvX2d-24" edge="1">
          <mxGeometry relative="1" as="geometry" />
        </mxCell>
        <mxCell id="8lX21HBY1fIl10csvX2d-16" value="&lt;div style=&quot;color: #383a42;background-color: #f5f5f5;font-family: Consolas, &#39;Courier New&#39;, monospace;font-weight: normal;font-size: 14px;line-height: 19px;white-space: pre;&quot;&gt;&lt;div&gt;&lt;span style=&quot;color: #4078f2;&quot;&gt;vc4_platform_drm_probe&lt;/span&gt;&lt;/div&gt;&lt;/div&gt;" style="text;whiteSpace=wrap;html=1;" parent="1" vertex="1">
          <mxGeometry x="1106" y="560" width="178" height="40" as="geometry" />
        </mxCell>
        <mxCell id="8lX21HBY1fIl10csvX2d-18" value="&lt;div style=&quot;color: #383a42;background-color: #f5f5f5;font-family: Consolas, &#39;Courier New&#39;, monospace;font-weight: normal;font-size: 14px;line-height: 19px;white-space: pre;&quot;&gt;&lt;div&gt;&lt;span style=&quot;color: #4078f2;&quot;&gt;component_match_add&lt;/span&gt;&lt;/div&gt;&lt;/div&gt;" style="text;whiteSpace=wrap;html=1;" parent="1" vertex="1">
          <mxGeometry x="963" y="635" width="157" height="40" as="geometry" />
        </mxCell>
        <mxCell id="8lX21HBY1fIl10csvX2d-19" value="&lt;div style=&quot;color: #383a42;background-color: #f5f5f5;font-family: Consolas, &#39;Courier New&#39;, monospace;font-weight: normal;font-size: 14px;line-height: 19px;white-space: pre;&quot;&gt;&lt;div&gt;&lt;span style=&quot;color: #4078f2;&quot;&gt;component_master_add_with_match&lt;/span&gt;&lt;/div&gt;&lt;/div&gt;" style="text;whiteSpace=wrap;html=1;" parent="1" vertex="1">
          <mxGeometry x="1193" y="635" width="250" height="40" as="geometry" />
        </mxCell>
        <mxCell id="8lX21HBY1fIl10csvX2d-39" style="edgeStyle=orthogonalEdgeStyle;rounded=0;orthogonalLoop=1;jettySize=auto;html=1;exitX=0.5;exitY=1;exitDx=0;exitDy=0;entryX=0.5;entryY=0;entryDx=0;entryDy=0;" parent="1" source="8lX21HBY1fIl10csvX2d-22" target="8lX21HBY1fIl10csvX2d-38" edge="1">
          <mxGeometry relative="1" as="geometry" />
        </mxCell>
        <mxCell id="8lX21HBY1fIl10csvX2d-22" value="&lt;div style=&quot;color: #383a42;background-color: #f5f5f5;font-family: Consolas, &#39;Courier New&#39;, monospace;font-weight: normal;font-size: 14px;line-height: 19px;white-space: pre;&quot;&gt;&lt;div&gt;&lt;span style=&quot;color: #4078f2;&quot;&gt;vc4_drm_bind&lt;/span&gt;&lt;/div&gt;&lt;/div&gt;" style="text;whiteSpace=wrap;html=1;" parent="1" vertex="1">
          <mxGeometry x="1142.75" y="710" width="104.5" height="40" as="geometry" />
        </mxCell>
        <mxCell id="8lX21HBY1fIl10csvX2d-29" value="" style="rounded=0;whiteSpace=wrap;html=1;" parent="1" vertex="1">
          <mxGeometry x="870" y="840" width="650" height="140" as="geometry" />
        </mxCell>
        <mxCell id="8lX21HBY1fIl10csvX2d-30" value="&lt;div style=&quot;color: #383a42;background-color: #f5f5f5;font-family: Consolas, &#39;Courier New&#39;, monospace;font-weight: normal;font-size: 14px;line-height: 19px;white-space: pre;&quot;&gt;&lt;div style=&quot;line-height: 19px;&quot;&gt;&lt;span style=&quot;color: #4078f2;&quot;&gt;vc4_hvs_bind&lt;/span&gt;&lt;/div&gt;&lt;/div&gt;" style="text;whiteSpace=wrap;html=1;" parent="1" vertex="1">
          <mxGeometry x="901.5" y="865" width="97" height="40" as="geometry" />
        </mxCell>
        <mxCell id="8lX21HBY1fIl10csvX2d-31" value="&lt;div style=&quot;color: #383a42;background-color: #f5f5f5;font-family: Consolas, &#39;Courier New&#39;, monospace;font-weight: normal;font-size: 14px;line-height: 19px;white-space: pre;&quot;&gt;&lt;div style=&quot;line-height: 19px;&quot;&gt;&lt;span style=&quot;color: #4078f2;&quot;&gt;vc4_hdmi_bind&lt;/span&gt;&lt;/div&gt;&lt;/div&gt;" style="text;whiteSpace=wrap;html=1;" parent="1" vertex="1">
          <mxGeometry x="1061.5" y="865" width="107" height="40" as="geometry" />
        </mxCell>
        <mxCell id="8lX21HBY1fIl10csvX2d-32" value="&lt;div style=&quot;color: #383a42;background-color: #f5f5f5;font-family: Consolas, &#39;Courier New&#39;, monospace;font-weight: normal;font-size: 14px;line-height: 19px;white-space: pre;&quot;&gt;&lt;div&gt;&lt;span style=&quot;color: #4078f2;&quot;&gt;vc4_vec_bind&lt;/span&gt;&lt;/div&gt;&lt;/div&gt;" style="text;whiteSpace=wrap;html=1;" parent="1" vertex="1">
          <mxGeometry x="1216.5" y="865" width="107" height="40" as="geometry" />
        </mxCell>
        <mxCell id="8lX21HBY1fIl10csvX2d-33" value="&lt;div style=&quot;color: #383a42;background-color: #f5f5f5;font-family: Consolas, &#39;Courier New&#39;, monospace;font-weight: normal;font-size: 14px;line-height: 19px;white-space: pre;&quot;&gt;&lt;div&gt;&lt;span style=&quot;color: #4078f2;&quot;&gt;vc4_dpi_bind&lt;/span&gt;&lt;/div&gt;&lt;/div&gt;" style="text;whiteSpace=wrap;html=1;" parent="1" vertex="1">
          <mxGeometry x="1376.5" y="865" width="107" height="40" as="geometry" />
        </mxCell>
        <mxCell id="8lX21HBY1fIl10csvX2d-34" value="&lt;div style=&quot;color: #383a42;background-color: #f5f5f5;font-family: Consolas, &#39;Courier New&#39;, monospace;font-weight: normal;font-size: 14px;line-height: 19px;white-space: pre;&quot;&gt;&lt;div&gt;&lt;span style=&quot;color: #4078f2;&quot;&gt;vc4_dsi_bind&lt;/span&gt;&lt;/div&gt;&lt;/div&gt;" style="text;whiteSpace=wrap;html=1;" parent="1" vertex="1">
          <mxGeometry x="901.5" y="930" width="100" height="40" as="geometry" />
        </mxCell>
        <mxCell id="8lX21HBY1fIl10csvX2d-35" value="&lt;div style=&quot;color: #383a42;background-color: #f5f5f5;font-family: Consolas, &#39;Courier New&#39;, monospace;font-weight: normal;font-size: 14px;line-height: 19px;white-space: pre;&quot;&gt;&lt;div&gt;&lt;span style=&quot;color: #4078f2;&quot;&gt;vc4_txp_bind&lt;/span&gt;&lt;/div&gt;&lt;/div&gt;" style="text;whiteSpace=wrap;html=1;" parent="1" vertex="1">
          <mxGeometry x="1063" y="930" width="97" height="40" as="geometry" />
        </mxCell>
        <mxCell id="8lX21HBY1fIl10csvX2d-36" value="&lt;div style=&quot;color: #383a42;background-color: #f5f5f5;font-family: Consolas, &#39;Courier New&#39;, monospace;font-weight: normal;font-size: 14px;line-height: 19px;white-space: pre;&quot;&gt;&lt;div&gt;&lt;span style=&quot;color: #4078f2;&quot;&gt;vc4_crtc_bind&lt;/span&gt;&lt;/div&gt;&lt;/div&gt;" style="text;whiteSpace=wrap;html=1;" parent="1" vertex="1">
          <mxGeometry x="1211.5" y="930" width="112" height="40" as="geometry" />
        </mxCell>
        <mxCell id="8lX21HBY1fIl10csvX2d-37" value="&lt;div style=&quot;color: #383a42;background-color: #f5f5f5;font-family: Consolas, &#39;Courier New&#39;, monospace;font-weight: normal;font-size: 14px;line-height: 19px;white-space: pre;&quot;&gt;&lt;div&gt;&lt;span style=&quot;color: #4078f2;&quot;&gt;vc4_v3d_bind&lt;/span&gt;&lt;/div&gt;&lt;/div&gt;" style="text;whiteSpace=wrap;html=1;" parent="1" vertex="1">
          <mxGeometry x="1370" y="930" width="107" height="40" as="geometry" />
        </mxCell>
        <mxCell id="8lX21HBY1fIl10csvX2d-40" style="edgeStyle=orthogonalEdgeStyle;rounded=0;orthogonalLoop=1;jettySize=auto;html=1;exitX=0.5;exitY=1;exitDx=0;exitDy=0;entryX=0.5;entryY=0;entryDx=0;entryDy=0;" parent="1" source="8lX21HBY1fIl10csvX2d-38" target="8lX21HBY1fIl10csvX2d-29" edge="1">
          <mxGeometry relative="1" as="geometry" />
        </mxCell>
        <mxCell id="8lX21HBY1fIl10csvX2d-38" value="&lt;div style=&quot;color: #383a42;background-color: #f5f5f5;font-family: Consolas, &#39;Courier New&#39;, monospace;font-weight: normal;font-size: 14px;line-height: 19px;white-space: pre;&quot;&gt;&lt;div&gt;&lt;span style=&quot;color: #4078f2;&quot;&gt;component_bind_all&lt;/span&gt;&lt;/div&gt;&lt;/div&gt;" style="text;whiteSpace=wrap;html=1;" parent="1" vertex="1">
          <mxGeometry x="1118.5" y="770" width="153" height="40" as="geometry" />
        </mxCell>
        <mxCell id="Gf03ZuLXbFwQY6CYaoA8-1" value="&lt;h1&gt;设备树&lt;/h1&gt;" style="text;html=1;align=center;verticalAlign=middle;resizable=0;points=[];autosize=1;strokeColor=none;fillColor=none;" vertex="1" parent="1">
          <mxGeometry x="30" y="80" width="100" height="70" as="geometry" />
        </mxCell>
        <mxCell id="Gf03ZuLXbFwQY6CYaoA8-2" value="&lt;h1&gt;vc4_drv.c&lt;/h1&gt;" style="text;html=1;align=center;verticalAlign=middle;resizable=0;points=[];autosize=1;strokeColor=none;fillColor=none;" vertex="1" parent="1">
          <mxGeometry x="850" y="140" width="130" height="70" as="geometry" />
        </mxCell>
        <mxCell id="Gf03ZuLXbFwQY6CYaoA8-3" value="&lt;h1&gt;vc4_crtc.c&lt;/h1&gt;" style="text;html=1;align=center;verticalAlign=middle;resizable=0;points=[];autosize=1;strokeColor=none;fillColor=none;" vertex="1" parent="1">
          <mxGeometry x="1685" y="140" width="140" height="70" as="geometry" />
        </mxCell>
        <mxCell id="Gf03ZuLXbFwQY6CYaoA8-7" style="edgeStyle=orthogonalEdgeStyle;rounded=0;orthogonalLoop=1;jettySize=auto;html=1;exitX=1;exitY=0.5;exitDx=0;exitDy=0;entryX=0;entryY=0.5;entryDx=0;entryDy=0;" edge="1" parent="1" source="Gf03ZuLXbFwQY6CYaoA8-5" target="Gf03ZuLXbFwQY6CYaoA8-6">
          <mxGeometry relative="1" as="geometry" />
        </mxCell>
        <mxCell id="Gf03ZuLXbFwQY6CYaoA8-11" style="edgeStyle=orthogonalEdgeStyle;rounded=0;orthogonalLoop=1;jettySize=auto;html=1;exitX=1;exitY=0.5;exitDx=0;exitDy=0;entryX=0;entryY=0.5;entryDx=0;entryDy=0;" edge="1" parent="1" source="Gf03ZuLXbFwQY6CYaoA8-5" target="Gf03ZuLXbFwQY6CYaoA8-10">
          <mxGeometry relative="1" as="geometry" />
        </mxCell>
        <mxCell id="Gf03ZuLXbFwQY6CYaoA8-23" style="edgeStyle=orthogonalEdgeStyle;rounded=0;orthogonalLoop=1;jettySize=auto;html=1;exitX=0.5;exitY=1;exitDx=0;exitDy=0;entryX=0.5;entryY=0;entryDx=0;entryDy=0;" edge="1" parent="1" source="Gf03ZuLXbFwQY6CYaoA8-5" target="Gf03ZuLXbFwQY6CYaoA8-22">
          <mxGeometry relative="1" as="geometry" />
        </mxCell>
        <mxCell id="Gf03ZuLXbFwQY6CYaoA8-5" value="&lt;div style=&quot;color: #383a42;background-color: #f5f5f5;font-family: Consolas, &#39;Courier New&#39;, monospace;font-weight: normal;font-size: 14px;line-height: 19px;white-space: pre;&quot;&gt;&lt;div&gt;&lt;span style=&quot;color: #4078f2;&quot;&gt;vc4_crtc_init&lt;/span&gt;&lt;/div&gt;&lt;/div&gt;" style="text;whiteSpace=wrap;html=1;" vertex="1" parent="1">
          <mxGeometry x="1860" y="240" width="110" height="30" as="geometry" />
        </mxCell>
        <mxCell id="Gf03ZuLXbFwQY6CYaoA8-9" value="" style="edgeStyle=orthogonalEdgeStyle;rounded=0;orthogonalLoop=1;jettySize=auto;html=1;" edge="1" parent="1" source="Gf03ZuLXbFwQY6CYaoA8-6" target="Gf03ZuLXbFwQY6CYaoA8-8">
          <mxGeometry relative="1" as="geometry" />
        </mxCell>
        <mxCell id="Gf03ZuLXbFwQY6CYaoA8-6" value="&lt;div style=&quot;color: #383a42;background-color: #f5f5f5;font-family: Consolas, &#39;Courier New&#39;, monospace;font-weight: normal;font-size: 14px;line-height: 19px;white-space: pre;&quot;&gt;&lt;div&gt;&lt;span style=&quot;color: #4078f2;&quot;&gt;vc4_plane_init&lt;/span&gt;&lt;/div&gt;&lt;/div&gt;" style="text;whiteSpace=wrap;html=1;" vertex="1" parent="1">
          <mxGeometry x="2010" y="190" width="120" height="30" as="geometry" />
        </mxCell>
        <mxCell id="Gf03ZuLXbFwQY6CYaoA8-8" value="&lt;div style=&quot;color: #383a42;background-color: #f5f5f5;font-family: Consolas, &#39;Courier New&#39;, monospace;font-weight: normal;font-size: 14px;line-height: 19px;white-space: pre;&quot;&gt;&lt;div&gt;&lt;span style=&quot;color: #aca600;&quot;&gt;drmm_universal_plane_alloc&lt;/span&gt;&lt;/div&gt;&lt;/div&gt;" style="text;whiteSpace=wrap;html=1;" vertex="1" parent="1">
          <mxGeometry x="2160" y="187.5" width="210" height="35" as="geometry" />
        </mxCell>
        <mxCell id="Gf03ZuLXbFwQY6CYaoA8-14" value="" style="edgeStyle=orthogonalEdgeStyle;rounded=0;orthogonalLoop=1;jettySize=auto;html=1;" edge="1" parent="1" source="Gf03ZuLXbFwQY6CYaoA8-10" target="Gf03ZuLXbFwQY6CYaoA8-13">
          <mxGeometry relative="1" as="geometry" />
        </mxCell>
        <mxCell id="Gf03ZuLXbFwQY6CYaoA8-18" style="edgeStyle=orthogonalEdgeStyle;rounded=0;orthogonalLoop=1;jettySize=auto;html=1;exitX=1;exitY=0.5;exitDx=0;exitDy=0;entryX=0;entryY=0.5;entryDx=0;entryDy=0;" edge="1" parent="1" source="Gf03ZuLXbFwQY6CYaoA8-10" target="Gf03ZuLXbFwQY6CYaoA8-17">
          <mxGeometry relative="1" as="geometry" />
        </mxCell>
        <mxCell id="Gf03ZuLXbFwQY6CYaoA8-10" value="&lt;div style=&quot;color: #383a42;background-color: #f5f5f5;font-family: Consolas, &#39;Courier New&#39;, monospace;font-weight: normal;font-size: 14px;line-height: 19px;white-space: pre;&quot;&gt;&lt;div&gt;&lt;span style=&quot;color: #4078f2;&quot;&gt;__vc4_crtc_init&lt;/span&gt;&lt;/div&gt;&lt;/div&gt;" style="text;whiteSpace=wrap;html=1;" vertex="1" parent="1">
          <mxGeometry x="2010" y="276.25" width="120" height="37.5" as="geometry" />
        </mxCell>
        <mxCell id="Gf03ZuLXbFwQY6CYaoA8-13" value="&lt;div style=&quot;color: #383a42;background-color: #f5f5f5;font-family: Consolas, &#39;Courier New&#39;, monospace;font-weight: normal;font-size: 14px;line-height: 19px;white-space: pre;&quot;&gt;&lt;div&gt;&lt;span style=&quot;color: #4078f2;&quot;&gt;drmm_crtc_init_with_planes&lt;/span&gt;&lt;/div&gt;&lt;/div&gt;" style="text;whiteSpace=wrap;html=1;" vertex="1" parent="1">
          <mxGeometry x="2170" y="250" width="210" height="40" as="geometry" />
        </mxCell>
        <mxCell id="Gf03ZuLXbFwQY6CYaoA8-15" value="&lt;font color=&quot;#999999&quot;&gt;// 创建primary plane&lt;/font&gt;" style="text;html=1;align=center;verticalAlign=middle;resizable=0;points=[];autosize=1;strokeColor=none;fillColor=none;" vertex="1" parent="1">
          <mxGeometry x="2155" y="160" width="130" height="30" as="geometry" />
        </mxCell>
        <mxCell id="Gf03ZuLXbFwQY6CYaoA8-16" value="&lt;font color=&quot;#999999&quot;&gt;// 创建crtc&lt;/font&gt;" style="text;html=1;align=center;verticalAlign=middle;resizable=0;points=[];autosize=1;strokeColor=none;fillColor=none;" vertex="1" parent="1">
          <mxGeometry x="2160" y="230" width="80" height="30" as="geometry" />
        </mxCell>
        <mxCell id="Gf03ZuLXbFwQY6CYaoA8-17" value="&lt;div style=&quot;color: #383a42;background-color: #f5f5f5;font-family: Consolas, &#39;Courier New&#39;, monospace;font-weight: normal;font-size: 14px;line-height: 19px;white-space: pre;&quot;&gt;&lt;div&gt;&lt;span style=&quot;color: #4078f2;&quot;&gt;drm_crtc_helper_add&lt;/span&gt;&lt;/div&gt;&lt;/div&gt;" style="text;whiteSpace=wrap;html=1;" vertex="1" parent="1">
          <mxGeometry x="2170" y="310" width="160" height="36.25" as="geometry" />
        </mxCell>
        <mxCell id="Gf03ZuLXbFwQY6CYaoA8-19" value="&lt;div style=&quot;color: #383a42;background-color: #f5f5f5;font-family: Consolas, &#39;Courier New&#39;, monospace;font-weight: normal;font-size: 14px;line-height: 19px;white-space: pre;&quot;&gt;&lt;div&gt;&lt;span style=&quot;color: #e45649;&quot;&gt;vc4_crtc_funcs&lt;/span&gt;&lt;/div&gt;&lt;/div&gt;" style="text;whiteSpace=wrap;html=1;" vertex="1" parent="1">
          <mxGeometry x="2390" y="250" width="140" height="40" as="geometry" />
        </mxCell>
        <mxCell id="Gf03ZuLXbFwQY6CYaoA8-20" value="&lt;div style=&quot;color: #383a42;background-color: #f5f5f5;font-family: Consolas, &#39;Courier New&#39;, monospace;font-weight: normal;font-size: 14px;line-height: 19px;white-space: pre;&quot;&gt;&lt;div&gt;&lt;span style=&quot;color: #e45649;&quot;&gt;vc4_crtc_helper_funcs&lt;/span&gt;&lt;/div&gt;&lt;/div&gt;" style="text;whiteSpace=wrap;html=1;" vertex="1" parent="1">
          <mxGeometry x="2330" y="310" width="170" height="40" as="geometry" />
        </mxCell>
        <mxCell id="Gf03ZuLXbFwQY6CYaoA8-21" value="&lt;div style=&quot;color: #383a42;background-color: #f5f5f5;font-family: Consolas, &#39;Courier New&#39;, monospace;font-weight: normal;font-size: 14px;line-height: 19px;white-space: pre;&quot;&gt;&lt;div&gt;&lt;span style=&quot;color: #e45649;&quot;&gt;vc4_plane_funcs&lt;/span&gt;&lt;/div&gt;&lt;/div&gt;" style="text;whiteSpace=wrap;html=1;" vertex="1" parent="1">
          <mxGeometry x="2370" y="185" width="150" height="40" as="geometry" />
        </mxCell>
        <mxCell id="Gf03ZuLXbFwQY6CYaoA8-22" value="&lt;div style=&quot;color: #383a42;background-color: #f5f5f5;font-family: Consolas, &#39;Courier New&#39;, monospace;font-weight: normal;font-size: 14px;line-height: 19px;white-space: pre;&quot;&gt;&lt;div&gt;&lt;span style=&quot;color: #4078f2;&quot;&gt;vc4_set_crtc_possible_masks&lt;/span&gt;&lt;/div&gt;&lt;/div&gt;" style="text;whiteSpace=wrap;html=1;" vertex="1" parent="1">
          <mxGeometry x="1807.5" y="346.25" width="215" height="33.75" as="geometry" />
        </mxCell>
        <mxCell id="Gf03ZuLXbFwQY6CYaoA8-24" value="&lt;h1&gt;vc4_dpi.c&lt;/h1&gt;" style="text;html=1;align=center;verticalAlign=middle;resizable=0;points=[];autosize=1;strokeColor=none;fillColor=none;" vertex="1" parent="1">
          <mxGeometry x="1690" y="390" width="130" height="70" as="geometry" />
        </mxCell>
        <mxCell id="Gf03ZuLXbFwQY6CYaoA8-28" style="edgeStyle=orthogonalEdgeStyle;rounded=0;orthogonalLoop=1;jettySize=auto;html=1;exitX=0.5;exitY=1;exitDx=0;exitDy=0;entryX=0.5;entryY=0;entryDx=0;entryDy=0;" edge="1" parent="1" source="Gf03ZuLXbFwQY6CYaoA8-25" target="Gf03ZuLXbFwQY6CYaoA8-27">
          <mxGeometry relative="1" as="geometry" />
        </mxCell>
        <mxCell id="Gf03ZuLXbFwQY6CYaoA8-25" value="&lt;div style=&quot;color: #383a42;background-color: #f5f5f5;font-family: Consolas, &#39;Courier New&#39;, monospace;font-weight: normal;font-size: 14px;line-height: 19px;white-space: pre;&quot;&gt;&lt;div&gt;&lt;span style=&quot;color: #4078f2;&quot;&gt;drmm_encoder_init&lt;/span&gt;&lt;/div&gt;&lt;/div&gt;" style="text;whiteSpace=wrap;html=1;" vertex="1" parent="1">
          <mxGeometry x="1850" y="480" width="140" height="30" as="geometry" />
        </mxCell>
        <mxCell id="Gf03ZuLXbFwQY6CYaoA8-26" value="&lt;div style=&quot;color: #383a42;background-color: #f5f5f5;font-family: Consolas, &#39;Courier New&#39;, monospace;font-weight: normal;font-size: 14px;line-height: 19px;white-space: pre;&quot;&gt;&lt;div&gt;&lt;span style=&quot;color: #e45649;&quot;&gt;vc4_dpi_encoder_funcs&lt;/span&gt;&lt;/div&gt;&lt;/div&gt;" style="text;whiteSpace=wrap;html=1;" vertex="1" parent="1">
          <mxGeometry x="2010" y="480" width="200" height="40" as="geometry" />
        </mxCell>
        <mxCell id="Gf03ZuLXbFwQY6CYaoA8-31" style="edgeStyle=orthogonalEdgeStyle;rounded=0;orthogonalLoop=1;jettySize=auto;html=1;exitX=0.5;exitY=1;exitDx=0;exitDy=0;entryX=0.5;entryY=0;entryDx=0;entryDy=0;" edge="1" parent="1" source="Gf03ZuLXbFwQY6CYaoA8-27" target="Gf03ZuLXbFwQY6CYaoA8-30">
          <mxGeometry relative="1" as="geometry" />
        </mxCell>
        <mxCell id="Gf03ZuLXbFwQY6CYaoA8-27" value="&lt;div style=&quot;color: #383a42;background-color: #f5f5f5;font-family: Consolas, &#39;Courier New&#39;, monospace;font-weight: normal;font-size: 14px;line-height: 19px;white-space: pre;&quot;&gt;&lt;div&gt;&lt;span style=&quot;color: #4078f2;&quot;&gt;drm_encoder_helper_add&lt;/span&gt;&lt;/div&gt;&lt;/div&gt;" style="text;whiteSpace=wrap;html=1;" vertex="1" parent="1">
          <mxGeometry x="1830" y="550" width="180" height="30" as="geometry" />
        </mxCell>
        <mxCell id="Gf03ZuLXbFwQY6CYaoA8-29" value="&lt;div style=&quot;color: #383a42;background-color: #f5f5f5;font-family: Consolas, &#39;Courier New&#39;, monospace;font-weight: normal;font-size: 14px;line-height: 19px;white-space: pre;&quot;&gt;&lt;div&gt;&lt;span style=&quot;color: #e45649;&quot;&gt;vc4_dpi_encoder_helper_funcs&lt;/span&gt;&lt;/div&gt;&lt;/div&gt;" style="text;whiteSpace=wrap;html=1;" vertex="1" parent="1">
          <mxGeometry x="2010" y="550" width="250" height="40" as="geometry" />
        </mxCell>
        <mxCell id="Gf03ZuLXbFwQY6CYaoA8-34" value="" style="edgeStyle=orthogonalEdgeStyle;rounded=0;orthogonalLoop=1;jettySize=auto;html=1;" edge="1" parent="1" source="Gf03ZuLXbFwQY6CYaoA8-30" target="Gf03ZuLXbFwQY6CYaoA8-33">
          <mxGeometry relative="1" as="geometry" />
        </mxCell>
        <mxCell id="Gf03ZuLXbFwQY6CYaoA8-30" value="&lt;div style=&quot;color: #383a42;background-color: #f5f5f5;font-family: Consolas, &#39;Courier New&#39;, monospace;font-weight: normal;font-size: 14px;line-height: 19px;white-space: pre;&quot;&gt;&lt;div&gt;&lt;span style=&quot;color: #4078f2;&quot;&gt;vc4_dpi_init_bridge&lt;/span&gt;&lt;/div&gt;&lt;/div&gt;" style="text;whiteSpace=wrap;html=1;" vertex="1" parent="1">
          <mxGeometry x="1842.5" y="620" width="157.5" height="30" as="geometry" />
        </mxCell>
        <mxCell id="Gf03ZuLXbFwQY6CYaoA8-32" value="&lt;font color=&quot;#999999&quot;&gt;// 先找panel再找bridge&lt;/font&gt;" style="text;html=1;align=center;verticalAlign=middle;resizable=0;points=[];autosize=1;strokeColor=none;fillColor=none;" vertex="1" parent="1">
          <mxGeometry x="1920" y="600" width="140" height="30" as="geometry" />
        </mxCell>
        <mxCell id="Gf03ZuLXbFwQY6CYaoA8-36" value="" style="edgeStyle=orthogonalEdgeStyle;rounded=0;orthogonalLoop=1;jettySize=auto;html=1;" edge="1" parent="1" source="Gf03ZuLXbFwQY6CYaoA8-33" target="Gf03ZuLXbFwQY6CYaoA8-35">
          <mxGeometry relative="1" as="geometry" />
        </mxCell>
        <mxCell id="Gf03ZuLXbFwQY6CYaoA8-33" value="&lt;div style=&quot;color: #383a42;background-color: #f5f5f5;font-family: Consolas, &#39;Courier New&#39;, monospace;font-weight: normal;font-size: 14px;line-height: 19px;white-space: pre;&quot;&gt;&lt;div&gt;&lt;span style=&quot;color: #4078f2;&quot;&gt;drmm_of_get_bridge&lt;/span&gt;&lt;/div&gt;&lt;/div&gt;" style="text;whiteSpace=wrap;html=1;" vertex="1" parent="1">
          <mxGeometry x="2040" y="620" width="150" height="30" as="geometry" />
        </mxCell>
        <mxCell id="Gf03ZuLXbFwQY6CYaoA8-35" value="&lt;div style=&quot;color: #383a42;background-color: #f5f5f5;font-family: Consolas, &#39;Courier New&#39;, monospace;font-weight: normal;font-size: 14px;line-height: 19px;white-space: pre;&quot;&gt;&lt;div&gt;&lt;span style=&quot;color: #4078f2;&quot;&gt;drm_of_find_panel_or_bridge&lt;/span&gt;&lt;/div&gt;&lt;/div&gt;" style="text;whiteSpace=wrap;html=1;" vertex="1" parent="1">
          <mxGeometry x="2220" y="620" width="220" height="30" as="geometry" />
        </mxCell>
      </root>
    </mxGraphModel>
  </diagram>
</mxfile>
